<svg width="78" height="56" viewBox="0 0 78 56" fill="none" xmlns="http://www.w3.org/2000/svg">
<path d="M33.8394 40.6515V43.8024H15V40.6515H33.8394Z" fill="#070A39"/>
<path d="M50.4787 38.8892C50.4787 39.8861 50.2395 40.8206 49.7611 41.6929C49.3003 42.5652 48.565 43.2684 47.5549 43.8024C46.5626 44.3364 45.3045 44.6035 43.7806 44.6035H40.6707V51.7597H36.9495V33.1215H43.7806C45.2159 33.1215 46.4386 33.3707 47.4486 33.8692C48.4586 34.3676 49.2117 35.053 49.7079 35.9252C50.2218 36.7975 50.4787 37.7855 50.4787 38.8892ZM43.6211 41.5861C44.6488 41.5861 45.4108 41.3547 45.907 40.8919C46.4031 40.4112 46.6512 39.7437 46.6512 38.8892C46.6512 37.0734 45.6412 36.1656 43.6211 36.1656H40.6707V41.5861H43.6211Z" fill="#070A39"/>
<path d="M58.5962 52C57.1786 52 55.9028 51.6885 54.7687 51.0654C53.6346 50.4246 52.7397 49.5256 52.0841 48.3685C51.4462 47.2114 51.1272 45.8763 51.1272 44.3631C51.1272 42.85 51.455 41.5149 52.1107 40.3578C52.784 39.2007 53.6966 38.3106 54.8484 37.6876C56.0002 37.0467 57.2849 36.7263 58.7025 36.7263C60.1201 36.7263 61.4048 37.0467 62.5566 37.6876C63.7084 38.3106 64.6121 39.2007 65.2678 40.3578C65.9411 41.5149 66.2778 42.85 66.2778 44.3631C66.2778 45.8763 65.9323 47.2114 65.2412 48.3685C64.5678 49.5256 63.6464 50.4246 62.4769 51.0654C61.3251 51.6885 60.0315 52 58.5962 52ZM58.5962 48.7423C59.2696 48.7423 59.8986 48.5821 60.4834 48.2617C61.0859 47.9235 61.5643 47.425 61.9187 46.7664C62.2731 46.1077 62.4503 45.3066 62.4503 44.3631C62.4503 42.9568 62.0782 41.8798 61.3339 41.1322C60.6074 40.3667 59.7126 39.984 58.6494 39.984C57.5862 39.984 56.6913 40.3667 55.9648 41.1322C55.256 41.8798 54.9016 42.9568 54.9016 44.3631C54.9016 45.7695 55.2471 46.8554 55.9382 47.6208C56.647 48.3685 57.533 48.7423 58.5962 48.7423Z" fill="#070A39"/>
<path d="M71.6654 32V51.7597H67.9442V32H71.6654Z" fill="#070A39"/>
<path d="M78 32V51.7597H74.2788V32H78Z" fill="#070A39"/>
<path d="M15.9329 30L12.8844 26.3594C12.0407 26.5696 11.178 26.6748 10.296 26.6748C8.41702 26.6748 6.69143 26.2352 5.11923 25.3561C3.54703 24.477 2.30078 23.2635 1.38047 21.7155C0.460156 20.1485 0 18.3807 0 16.4123C0 14.4631 0.460156 12.7144 1.38047 11.1665C2.30078 9.59941 3.54703 8.37633 5.11923 7.49724C6.69143 6.61816 8.41702 6.17861 10.296 6.17861C12.1941 6.17861 13.9197 6.61816 15.4727 7.49724C17.0449 8.37633 18.2816 9.59941 19.1827 11.1665C20.1031 12.7144 20.5632 14.4631 20.5632 16.4123C20.5632 18.1896 20.1797 19.814 19.4128 21.2856C18.6651 22.738 17.6393 23.9228 16.3355 24.8401L20.9371 30H15.9329ZM4.1414 16.4123C4.1414 17.7501 4.40024 18.9254 4.91791 19.9383C5.43559 20.9511 6.15458 21.7347 7.0749 22.2889C8.01438 22.824 9.08808 23.0915 10.296 23.0915C11.5039 23.0915 12.568 22.824 13.4883 22.2889C14.4086 21.7347 15.1276 20.9511 15.6453 19.9383C16.163 18.9254 16.4218 17.7501 16.4218 16.4123C16.4218 15.0746 16.163 13.9089 15.6453 12.9151C15.1276 11.9022 14.4086 11.1283 13.4883 10.5932C12.568 10.0581 11.5039 9.79052 10.296 9.79052C9.08808 9.79052 8.01438 10.0581 7.0749 10.5932C6.15458 11.1283 5.43559 11.9022 4.91791 12.9151C4.40024 13.9089 4.1414 15.0746 4.1414 16.4123Z" fill="#070A39"/>
<path d="M37.5058 10.5932V26.4741H33.4507V24.4675C32.933 25.1555 32.2524 25.7001 31.4088 26.1014C30.5843 26.4836 29.6832 26.6748 28.7054 26.6748C27.4591 26.6748 26.3567 26.4168 25.398 25.9008C24.4393 25.3657 23.682 24.5917 23.126 23.5788C22.5891 22.5469 22.3207 21.3238 22.3207 19.9096V10.5932H26.3471V19.3363C26.3471 20.5976 26.6634 21.5722 27.2961 22.2602C27.9288 22.9291 28.7916 23.2635 29.8845 23.2635C30.9966 23.2635 31.8689 22.9291 32.5016 22.2602C33.1344 21.5722 33.4507 20.5976 33.4507 19.3363V10.5932H37.5058Z" fill="#070A39"/>
<path d="M42.3701 8.70121C41.6607 8.70121 41.0663 8.48144 40.587 8.0419C40.1268 7.58324 39.8967 7.01948 39.8967 6.35061C39.8967 5.68173 40.1268 5.12753 40.587 4.68798C41.0663 4.22933 41.6607 4 42.3701 4C43.0795 4 43.6642 4.22933 44.1244 4.68798C44.6037 5.12753 44.8434 5.68173 44.8434 6.35061C44.8434 7.01948 44.6037 7.58324 44.1244 8.0419C43.6642 8.48144 43.0795 8.70121 42.3701 8.70121ZM44.3545 10.5932V26.4741H40.3281V10.5932H44.3545Z" fill="#070A39"/>
<path d="M46.1468 18.5336C46.1468 16.8901 46.4823 15.4568 47.1534 14.2337C47.8244 12.9915 48.7543 12.036 49.9431 11.3671C51.1318 10.6792 52.4931 10.3352 54.027 10.3352C56.0018 10.3352 57.6315 10.832 58.9161 11.8258C60.2199 12.8004 61.0923 14.1764 61.5332 15.9537H57.1905C56.9605 15.2657 56.5674 14.7306 56.0114 14.3484C55.4745 13.9471 54.8035 13.7464 53.9982 13.7464C52.8478 13.7464 51.9371 14.1669 51.266 15.0077C50.595 15.8295 50.2594 17.0048 50.2594 18.5336C50.2594 20.0434 50.595 21.2187 51.266 22.0595C51.9371 22.8813 52.8478 23.2922 53.9982 23.2922C55.6279 23.2922 56.692 22.566 57.1905 21.1136H61.5332C61.0923 22.8335 60.2199 24.1999 58.9161 25.2128C57.6123 26.2257 55.9826 26.7321 54.027 26.7321C52.4931 26.7321 51.1318 26.3976 49.9431 25.7288C48.7543 25.0408 47.8244 24.0853 47.1534 22.8622C46.4823 21.62 46.1468 20.1771 46.1468 18.5336Z" fill="#070A39"/>
<path d="M72.7657 26.4741L67.3589 19.7089V26.4741H63.3325V5.2613H67.3589V17.3297L72.7082 10.5932H77.9425L70.9251 18.5623L78 26.4741H72.7657Z" fill="#070A39"/>
</svg>
