<svg width="68" height="45" viewBox="0 0 68 45" fill="none" xmlns="http://www.w3.org/2000/svg">
<path d="M14.3998 7.31644C14.3998 8.37515 14.1451 9.36769 13.6359 10.2941C13.1456 11.2204 12.3629 11.9672 11.2878 12.5344C10.2317 13.1015 8.89259 13.3851 7.27062 13.3851H3.96066V20.9851H2.28882e-05V1.19105H7.27062C8.79829 1.19105 10.0996 1.45573 11.1747 1.98508C12.2497 2.51443 13.0513 3.2423 13.5793 4.16867C14.1263 5.09504 14.3998 6.14429 14.3998 7.31644ZM7.10088 10.1806C8.19477 10.1806 9.00575 9.93485 9.53384 9.44331C10.0619 8.93286 10.326 8.2239 10.326 7.31644C10.326 5.38807 9.25094 4.42389 7.10088 4.42389H3.96066V10.1806H7.10088Z" fill="#070A39"/>
<path d="M23.0396 21.2404C21.5307 21.2404 20.1728 20.9095 18.9658 20.2478C17.7587 19.5672 16.8063 18.6125 16.1084 17.3836C15.4295 16.1548 15.09 14.7369 15.09 13.1299C15.09 11.5229 15.4389 10.105 16.1367 8.87614C16.8534 7.64728 17.8247 6.70201 19.0506 6.04031C20.2765 5.35972 21.6439 5.01942 23.1527 5.01942C24.6615 5.01942 26.0289 5.35972 27.2548 6.04031C28.4807 6.70201 29.4426 7.64728 30.1404 8.87614C30.8571 10.105 31.2154 11.5229 31.2154 13.1299C31.2154 14.7369 30.8477 16.1548 30.1121 17.3836C29.3954 18.6125 28.4147 19.5672 27.1699 20.2478C25.944 20.9095 24.5672 21.2404 23.0396 21.2404ZM23.0396 17.7806C23.7562 17.7806 24.4258 17.6105 25.0482 17.2702C25.6894 16.911 26.1986 16.3816 26.5758 15.6821C26.953 14.9826 27.1416 14.1319 27.1416 13.1299C27.1416 11.6364 26.7456 10.4926 25.9535 9.69853C25.1802 8.8856 24.2278 8.47913 23.0961 8.47913C21.9645 8.47913 21.0121 8.8856 20.2388 9.69853C19.4844 10.4926 19.1072 11.6364 19.1072 13.1299C19.1072 14.6234 19.475 15.7767 20.2105 16.5896C20.9649 17.3836 21.908 17.7806 23.0396 17.7806Z" fill="#070A39"/>
<path d="M39.9485 21.2404C38.4397 21.2404 37.0818 20.9095 35.8747 20.2478C34.6677 19.5672 33.7152 18.6125 33.0174 17.3836C32.3384 16.1548 31.9989 14.7369 31.9989 13.1299C31.9989 11.5229 32.3479 10.105 33.0457 8.87614C33.7624 7.64728 34.7337 6.70201 35.9596 6.04031C37.1855 5.35972 38.5529 5.01942 40.0617 5.01942C41.5705 5.01942 42.9378 5.35972 44.1638 6.04031C45.3897 6.70201 46.3515 7.64728 47.0494 8.87614C47.7661 10.105 48.1244 11.5229 48.1244 13.1299C48.1244 14.7369 47.7566 16.1548 47.0211 17.3836C46.3044 18.6125 45.3237 19.5672 44.0789 20.2478C42.853 20.9095 41.4762 21.2404 39.9485 21.2404ZM39.9485 17.7806C40.6652 17.7806 41.3347 17.6105 41.9571 17.2702C42.5984 16.911 43.1076 16.3816 43.4848 15.6821C43.862 14.9826 44.0506 14.1319 44.0506 13.1299C44.0506 11.6364 43.6545 10.4926 42.8624 9.69853C42.0891 8.8856 41.1367 8.47913 40.0051 8.47913C38.8735 8.47913 37.921 8.8856 37.1478 9.69853C36.3934 10.4926 36.0162 11.6364 36.0162 13.1299C36.0162 14.6234 36.3839 15.7767 37.1195 16.5896C37.8739 17.3836 38.8169 17.7806 39.9485 17.7806Z" fill="#070A39"/>
<path d="M53.8587 0V20.9851H49.8981V0H53.8587Z" fill="#070A39"/>
<path d="M20.0517 32.9477V36.294H2.28882e-05V32.9477H20.0517Z" fill="#070A39"/>
<path d="M37.7616 31.0761C37.7616 32.1348 37.507 33.1273 36.9978 34.0537C36.5074 34.9801 35.7247 35.7268 34.6497 36.294C33.5935 36.8612 32.2544 37.1448 30.6324 37.1448H27.3225V44.7448H23.3619V24.9507H30.6324C32.1601 24.9507 33.4615 25.2154 34.5365 25.7447C35.6115 26.2741 36.4131 27.0019 36.9412 27.9283C37.4881 28.8547 37.7616 29.9039 37.7616 31.0761ZM30.4627 33.9403C31.5566 33.9403 32.3676 33.6945 32.8957 33.203C33.4237 32.6925 33.6878 31.9835 33.6878 31.0761C33.6878 29.1477 32.6128 28.1835 30.4627 28.1835H27.3225V33.9403H30.4627Z" fill="#070A39"/>
<path d="M46.4014 45C44.8926 45 43.5346 44.6692 42.3276 44.0075C41.1205 43.3269 40.1681 42.3721 39.4703 41.1433C38.7913 39.9144 38.4518 38.4965 38.4518 36.8895C38.4518 35.2826 38.8007 33.8646 39.4986 32.6358C40.2153 31.4069 41.1866 30.4617 42.4125 29.8C43.6384 29.1194 45.0057 28.7791 46.5145 28.7791C48.0234 28.7791 49.3907 29.1194 50.6166 29.8C51.8425 30.4617 52.8044 31.4069 53.5022 32.6358C54.2189 33.8646 54.5773 35.2826 54.5773 36.8895C54.5773 38.4965 54.2095 39.9144 53.4739 41.1433C52.7573 42.3721 51.7765 43.3269 50.5318 44.0075C49.3059 44.6692 47.9291 45 46.4014 45ZM46.4014 41.5403C47.1181 41.5403 47.7876 41.3701 48.41 41.0298C49.0512 40.6706 49.5605 40.1413 49.9377 39.4418C50.3149 38.7423 50.5035 37.8915 50.5035 36.8895C50.5035 35.396 50.1074 34.2522 49.3153 33.4582C48.542 32.6452 47.5896 32.2388 46.458 32.2388C45.3264 32.2388 44.3739 32.6452 43.6007 33.4582C42.8462 34.2522 42.469 35.396 42.469 36.8895C42.469 38.3831 42.8368 39.5363 43.5724 40.3492C44.3268 41.1433 45.2698 41.5403 46.4014 41.5403Z" fill="#070A39"/>
<path d="M60.3116 23.7596V44.7448H56.3509V23.7596H60.3116Z" fill="#070A39"/>
<path d="M67.0537 23.7596V44.7448H63.0931V23.7596H67.0537Z" fill="#070A39"/>
</svg>
